<?xml version="1.0" encoding="UTF-8" standalone="no"?>
<!DOCTYPE svg PUBLIC "-//W3C//DTD SVG 1.1//EN"
 "http://www.w3.org/Graphics/SVG/1.1/DTD/svg11.dtd">
<!-- Generated by graphviz version 2.38.0 (20140413.2041)
 -->
<!-- Title: G Pages: 1 -->
<svg width="1929pt" height="265pt"
 viewBox="0.00 0.00 1928.68 265.35" xmlns="http://www.w3.org/2000/svg" xmlns:xlink="http://www.w3.org/1999/xlink">
<g id="graph0" class="graph" transform="scale(1 1) rotate(0) translate(4 261.345)">
<title>G</title>
<polygon fill="white" stroke="none" points="-4,4 -4,-261.345 1924.68,-261.345 1924.68,4 -4,4"/>
<!-- result&#45;received&#45;ok -->
<g id="node1" class="node"><title>result&#45;received&#45;ok</title>
<polygon fill="green" stroke="black" points="1623.5,-220 1507.5,-220 1507.5,-184 1623.5,-184 1623.5,-220"/>
<text text-anchor="middle" x="1565.5" y="-198.3" font-family="Times New Roman,serif" font-size="14.00" fill="white">result&#45;received&#45;ok</text>
</g>
<!-- result&#45;saved -->
<g id="node2" class="node"><title>result&#45;saved</title>
<polygon fill="none" stroke="black" points="1758.5,-220 1675.5,-220 1675.5,-184 1758.5,-184 1758.5,-220"/>
<text text-anchor="middle" x="1717" y="-198.3" font-family="Times New Roman,serif" font-size="14.00">result&#45;saved</text>
</g>
<!-- result&#45;received&#45;ok&#45;&gt;result&#45;saved -->
<g id="edge1" class="edge"><title>result&#45;received&#45;ok&#45;&gt;result&#45;saved</title>
<path fill="none" stroke="black" d="M1623.87,-202C1637.39,-202 1651.7,-202 1664.92,-202"/>
<polygon fill="black" stroke="black" points="1665.24,-205.5 1675.24,-202 1665.24,-198.5 1665.24,-205.5"/>
</g>
<!-- finished&#45;ok -->
<g id="node6" class="node"><title>finished&#45;ok</title>
<ellipse fill="green" stroke="black" cx="1865.34" cy="-202" rx="51.2025" ry="51.2025"/>
<ellipse fill="none" stroke="black" cx="1865.34" cy="-202" rx="55.1913" ry="55.1913"/>
<text text-anchor="middle" x="1865.34" y="-198.3" font-family="Times New Roman,serif" font-size="14.00" fill="white">finished&#45;ok</text>
</g>
<!-- result&#45;saved&#45;&gt;finished&#45;ok -->
<g id="edge4" class="edge"><title>result&#45;saved&#45;&gt;finished&#45;ok</title>
<path fill="none" stroke="black" d="M1758.76,-202C1771.49,-202 1785.85,-202 1799.79,-202"/>
<polygon fill="black" stroke="black" points="1799.84,-205.5 1809.84,-202 1799.84,-198.5 1799.84,-205.5"/>
</g>
<!-- authenticated -->
<g id="node3" class="node"><title>authenticated</title>
<polygon fill="none" stroke="black" points="95,-49 6,-49 6,-13 95,-13 95,-49"/>
<text text-anchor="middle" x="50.5" y="-27.3" font-family="Times New Roman,serif" font-size="14.00">authenticated</text>
</g>
<!-- authorized -->
<g id="node4" class="node"><title>authorized</title>
<polygon fill="none" stroke="black" points="212,-82 138,-82 138,-46 212,-46 212,-82"/>
<text text-anchor="middle" x="175" y="-60.3" font-family="Times New Roman,serif" font-size="14.00">authorized</text>
</g>
<!-- authenticated&#45;&gt;authorized -->
<g id="edge2" class="edge"><title>authenticated&#45;&gt;authorized</title>
<path fill="none" stroke="black" d="M95.0338,-42.7275C105.775,-45.621 117.311,-48.7287 128.158,-51.6507"/>
<polygon fill="black" stroke="black" points="127.316,-55.0487 137.883,-54.2704 129.137,-48.2897 127.316,-55.0487"/>
</g>
<!-- err -->
<g id="node5" class="node"><title>err</title>
<polygon fill="red" stroke="black" points="351.5,-38 297.5,-38 297.5,-2 351.5,-2 351.5,-38"/>
<text text-anchor="middle" x="324.5" y="-16.3" font-family="Times New Roman,serif" font-size="14.00" fill="white">err</text>
</g>
<!-- authenticated&#45;&gt;err -->
<g id="edge3" class="edge"><title>authenticated&#45;&gt;err</title>
<path fill="none" stroke="black" d="M95.2015,-29.2327C148.366,-27.0826 237.16,-23.4917 286.893,-21.4804"/>
<polygon fill="black" stroke="black" points="287.33,-24.9657 297.18,-21.0644 287.047,-17.9714 287.33,-24.9657"/>
</g>
<!-- authorized&#45;&gt;err -->
<g id="edge14" class="edge"><title>authorized&#45;&gt;err</title>
<path fill="none" stroke="black" d="M212.083,-53.2364C234.965,-46.4105 264.46,-37.6118 287.355,-30.7823"/>
<polygon fill="black" stroke="black" points="288.46,-34.1051 297.042,-27.8925 286.459,-27.3972 288.46,-34.1051"/>
</g>
<!-- start&#45;tk&#45;sent -->
<g id="node7" class="node"><title>start&#45;tk&#45;sent</title>
<polygon fill="blue" stroke="black" points="366,-94 283,-94 283,-58 366,-58 366,-94"/>
<text text-anchor="middle" x="324.5" y="-72.3" font-family="Times New Roman,serif" font-size="14.00" fill="white">start&#45;tk&#45;sent</text>
</g>
<!-- authorized&#45;&gt;start&#45;tk&#45;sent -->
<g id="edge13" class="edge"><title>authorized&#45;&gt;start&#45;tk&#45;sent</title>
<path fill="none" stroke="black" d="M212.083,-66.9355C230.312,-68.4186 252.739,-70.2432 272.681,-71.8656"/>
<polygon fill="black" stroke="black" points="272.597,-75.3702 282.848,-72.6927 273.165,-68.3933 272.597,-75.3702"/>
<text text-anchor="middle" x="247.5" y="-75.8" font-family="Times New Roman,serif" font-size="14.00">step&#45;1</text>
</g>
<!-- start&#45;tk&#45;received -->
<g id="node8" class="node"><title>start&#45;tk&#45;received</title>
<polygon fill="blue" stroke="black" points="544,-94 437,-94 437,-58 544,-58 544,-94"/>
<text text-anchor="middle" x="490.5" y="-72.3" font-family="Times New Roman,serif" font-size="14.00" fill="white">start&#45;tk&#45;received</text>
</g>
<!-- start&#45;tk&#45;sent&#45;&gt;start&#45;tk&#45;received -->
<g id="edge5" class="edge"><title>start&#45;tk&#45;sent&#45;&gt;start&#45;tk&#45;received</title>
<path fill="none" stroke="black" d="M366.039,-76C384.297,-76 406.276,-76 426.597,-76"/>
<polygon fill="black" stroke="black" points="426.73,-79.5001 436.73,-76 426.73,-72.5001 426.73,-79.5001"/>
<text text-anchor="middle" x="401.5" y="-79.8" font-family="Times New Roman,serif" font-size="14.00">step&#45;2</text>
</g>
<!-- start&#45;tk&#45;err -->
<g id="node18" class="node"><title>start&#45;tk&#45;err</title>
<polygon fill="red" stroke="black" points="748,-82 673,-82 673,-46 748,-46 748,-82"/>
<text text-anchor="middle" x="710.5" y="-60.3" font-family="Times New Roman,serif" font-size="14.00" fill="white">start&#45;tk&#45;err</text>
</g>
<!-- start&#45;tk&#45;received&#45;&gt;start&#45;tk&#45;err -->
<g id="edge16" class="edge"><title>start&#45;tk&#45;received&#45;&gt;start&#45;tk&#45;err</title>
<path fill="none" stroke="black" d="M544.272,-73.0951C580.358,-71.1087 627.767,-68.499 662.544,-66.5848"/>
<polygon fill="black" stroke="black" points="663.112,-70.0589 672.904,-66.0144 662.727,-63.0695 663.112,-70.0589"/>
</g>
<!-- start&#45;tk&#45;ok -->
<g id="node19" class="node"><title>start&#45;tk&#45;ok</title>
<polygon fill="green" stroke="black" points="655,-128 581,-128 581,-92 655,-92 655,-128"/>
<text text-anchor="middle" x="618" y="-106.3" font-family="Times New Roman,serif" font-size="14.00" fill="white">start&#45;tk&#45;ok</text>
</g>
<!-- start&#45;tk&#45;received&#45;&gt;start&#45;tk&#45;ok -->
<g id="edge15" class="edge"><title>start&#45;tk&#45;received&#45;&gt;start&#45;tk&#45;ok</title>
<path fill="none" stroke="black" d="M544.36,-90.3205C553.219,-92.7206 562.348,-95.1939 571.016,-97.5423"/>
<polygon fill="black" stroke="black" points="570.37,-100.993 580.937,-100.23 572.2,-94.2367 570.37,-100.993"/>
</g>
<!-- initial -->
<g id="node9" class="node"><title>initial</title>
<ellipse fill="black" stroke="black" cx="50.5" cy="-118" rx="1.8" ry="1.8"/>
</g>
<!-- started -->
<g id="node10" class="node"><title>started</title>
<polygon fill="none" stroke="black" points="202,-136 148,-136 148,-100 202,-100 202,-136"/>
<text text-anchor="middle" x="175" y="-114.3" font-family="Times New Roman,serif" font-size="14.00">started</text>
</g>
<!-- initial&#45;&gt;started -->
<g id="edge6" class="edge"><title>initial&#45;&gt;started</title>
<path fill="none" stroke="black" d="M52.8757,-118C61.1536,-118 105.072,-118 137.656,-118"/>
<polygon fill="black" stroke="black" points="137.777,-121.5 147.777,-118 137.777,-114.5 137.777,-121.5"/>
</g>
<!-- start&#45;data&#45;sent&#45;err -->
<g id="node11" class="node"><title>start&#45;data&#45;sent&#45;err</title>
<polygon fill="red" stroke="black" points="1145,-120 1030,-120 1030,-84 1145,-84 1145,-120"/>
<text text-anchor="middle" x="1087.5" y="-98.3" font-family="Times New Roman,serif" font-size="14.00" fill="white">start&#45;data&#45;sent&#45;err</text>
</g>
<!-- finished&#45;err -->
<g id="node12" class="node"><title>finished&#45;err</title>
<ellipse fill="red" stroke="black" cx="1717" cy="-83" rx="51.9911" ry="51.9911"/>
<ellipse fill="none" stroke="black" cx="1717" cy="-83" rx="55.9908" ry="55.9908"/>
<text text-anchor="middle" x="1717" y="-79.3" font-family="Times New Roman,serif" font-size="14.00" fill="white">finished&#45;err</text>
</g>
<!-- start&#45;data&#45;sent&#45;err&#45;&gt;finished&#45;err -->
<g id="edge7" class="edge"><title>start&#45;data&#45;sent&#45;err&#45;&gt;finished&#45;err</title>
<path fill="none" stroke="black" d="M1145.07,-102C1189.94,-102 1254.23,-102 1310.5,-102 1310.5,-102 1310.5,-102 1566.5,-102 1594.56,-102 1625.35,-98.6645 1651.66,-94.7886"/>
<polygon fill="black" stroke="black" points="1652.53,-98.1966 1661.88,-93.223 1651.47,-91.2773 1652.53,-98.1966"/>
</g>
<!-- result&#45;received&#45;err -->
<g id="node13" class="node"><title>result&#45;received&#45;err</title>
<polygon fill="red" stroke="black" points="1624,-166 1507,-166 1507,-130 1624,-130 1624,-166"/>
<text text-anchor="middle" x="1565.5" y="-144.3" font-family="Times New Roman,serif" font-size="14.00" fill="white">result&#45;received&#45;err</text>
</g>
<!-- result&#45;received&#45;err&#45;&gt;finished&#45;err -->
<g id="edge8" class="edge"><title>result&#45;received&#45;err&#45;&gt;finished&#45;err</title>
<path fill="none" stroke="black" d="M1610.28,-129.937C1621.01,-125.443 1632.44,-120.595 1643,-116 1647.39,-114.089 1651.92,-112.095 1656.48,-110.075"/>
<polygon fill="black" stroke="black" points="1658.11,-113.179 1665.82,-105.91 1655.26,-106.786 1658.11,-113.179"/>
</g>
<!-- start&#45;data&#45;sent&#45;ok -->
<g id="node14" class="node"><title>start&#45;data&#45;sent&#45;ok</title>
<polygon fill="green" stroke="black" points="1012,-166 898,-166 898,-130 1012,-130 1012,-166"/>
<text text-anchor="middle" x="955" y="-144.3" font-family="Times New Roman,serif" font-size="14.00" fill="white">start&#45;data&#45;sent&#45;ok</text>
</g>
<!-- tool&#45;timeout&#45;err -->
<g id="node15" class="node"><title>tool&#45;timeout&#45;err</title>
<polygon fill="red" stroke="black" points="1271.5,-166 1167.5,-166 1167.5,-130 1271.5,-130 1271.5,-166"/>
<text text-anchor="middle" x="1219.5" y="-144.3" font-family="Times New Roman,serif" font-size="14.00" fill="white">tool&#45;timeout&#45;err</text>
</g>
<!-- start&#45;data&#45;sent&#45;ok&#45;&gt;tool&#45;timeout&#45;err -->
<g id="edge9" class="edge"><title>start&#45;data&#45;sent&#45;ok&#45;&gt;tool&#45;timeout&#45;err</title>
<path fill="none" stroke="black" d="M1012.31,-148C1054.85,-148 1113.18,-148 1156.95,-148"/>
<polygon fill="black" stroke="black" points="1157.18,-151.5 1167.18,-148 1157.18,-144.5 1157.18,-151.5"/>
</g>
<!-- result&#45;tk&#45;received -->
<g id="node16" class="node"><title>result&#45;tk&#45;received</title>
<polygon fill="blue" stroke="black" points="1276,-220 1163,-220 1163,-184 1276,-184 1276,-220"/>
<text text-anchor="middle" x="1219.5" y="-198.3" font-family="Times New Roman,serif" font-size="14.00" fill="white">result&#45;tk&#45;received</text>
</g>
<!-- start&#45;data&#45;sent&#45;ok&#45;&gt;result&#45;tk&#45;received -->
<g id="edge10" class="edge"><title>start&#45;data&#45;sent&#45;ok&#45;&gt;result&#45;tk&#45;received</title>
<path fill="none" stroke="black" d="M1012.31,-159.584C1053.54,-168.066 1109.61,-179.599 1152.87,-188.499"/>
<polygon fill="black" stroke="black" points="1152.23,-191.941 1162.73,-190.528 1153.64,-185.084 1152.23,-191.941"/>
<text text-anchor="middle" x="1087.5" y="-189.8" font-family="Times New Roman,serif" font-size="14.00">step&#45;4</text>
</g>
<!-- result&#45;tk&#45;sent -->
<g id="node20" class="node"><title>result&#45;tk&#45;sent</title>
<polygon fill="blue" stroke="black" points="1436,-220 1347,-220 1347,-184 1436,-184 1436,-220"/>
<text text-anchor="middle" x="1391.5" y="-198.3" font-family="Times New Roman,serif" font-size="14.00" fill="white">result&#45;tk&#45;sent</text>
</g>
<!-- result&#45;tk&#45;received&#45;&gt;result&#45;tk&#45;sent -->
<g id="edge19" class="edge"><title>result&#45;tk&#45;received&#45;&gt;result&#45;tk&#45;sent</title>
<path fill="none" stroke="black" d="M1276.16,-202C1295.62,-202 1317.41,-202 1336.71,-202"/>
<polygon fill="black" stroke="black" points="1336.84,-205.5 1346.84,-202 1336.84,-198.5 1336.84,-205.5"/>
<text text-anchor="middle" x="1311.5" y="-205.8" font-family="Times New Roman,serif" font-size="14.00">step&#45;5</text>
</g>
<!-- start&#45;tk&#45;sent&#45;err -->
<g id="node17" class="node"><title>start&#45;tk&#45;sent&#45;err</title>
<polygon fill="red" stroke="black" points="1616.5,-36 1514.5,-36 1514.5,-0 1616.5,-0 1616.5,-36"/>
<text text-anchor="middle" x="1565.5" y="-14.3" font-family="Times New Roman,serif" font-size="14.00" fill="white">start&#45;tk&#45;sent&#45;err</text>
</g>
<!-- start&#45;tk&#45;sent&#45;err&#45;&gt;finished&#45;err -->
<g id="edge11" class="edge"><title>start&#45;tk&#45;sent&#45;err&#45;&gt;finished&#45;err</title>
<path fill="none" stroke="black" d="M1610.28,-36.0627C1621.01,-40.557 1632.44,-45.4051 1643,-50 1647.39,-51.9108 1651.92,-53.9047 1656.48,-55.9247"/>
<polygon fill="black" stroke="black" points="1655.26,-59.2138 1665.82,-60.0896 1658.11,-52.8205 1655.26,-59.2138"/>
</g>
<!-- start&#45;tk&#45;err&#45;&gt;finished&#45;err -->
<g id="edge12" class="edge"><title>start&#45;tk&#45;err&#45;&gt;finished&#45;err</title>
<path fill="none" stroke="black" d="M748.096,-64C782.03,-64 833.926,-64 879,-64 879,-64 879,-64 1566.5,-64 1594.56,-64 1625.35,-67.3355 1651.66,-71.2114"/>
<polygon fill="black" stroke="black" points="1651.47,-74.7227 1661.88,-72.777 1652.53,-67.8034 1651.47,-74.7227"/>
</g>
<!-- start&#45;data&#45;sent -->
<g id="node21" class="node"><title>start&#45;data&#45;sent</title>
<polygon fill="blue" stroke="black" points="861,-128 766,-128 766,-92 861,-92 861,-128"/>
<text text-anchor="middle" x="813.5" y="-106.3" font-family="Times New Roman,serif" font-size="14.00" fill="white">start&#45;data&#45;sent</text>
</g>
<!-- start&#45;tk&#45;ok&#45;&gt;start&#45;data&#45;sent -->
<g id="edge20" class="edge"><title>start&#45;tk&#45;ok&#45;&gt;start&#45;data&#45;sent</title>
<path fill="none" stroke="black" d="M655.396,-110C683.649,-110 723.334,-110 755.749,-110"/>
<polygon fill="black" stroke="black" points="755.994,-113.5 765.994,-110 755.994,-106.5 755.994,-113.5"/>
<text text-anchor="middle" x="710.5" y="-113.8" font-family="Times New Roman,serif" font-size="14.00">step&#45;3</text>
</g>
<!-- result&#45;tk&#45;sent&#45;&gt;result&#45;received&#45;ok -->
<g id="edge17" class="edge"><title>result&#45;tk&#45;sent&#45;&gt;result&#45;received&#45;ok</title>
<path fill="none" stroke="black" d="M1436.35,-202C1454.82,-202 1476.75,-202 1497.19,-202"/>
<polygon fill="black" stroke="black" points="1497.4,-205.5 1507.4,-202 1497.4,-198.5 1497.4,-205.5"/>
<text text-anchor="middle" x="1471.5" y="-205.8" font-family="Times New Roman,serif" font-size="14.00">step&#45;6</text>
</g>
<!-- result&#45;tk&#45;sent&#45;&gt;result&#45;received&#45;err -->
<g id="edge18" class="edge"><title>result&#45;tk&#45;sent&#45;&gt;result&#45;received&#45;err</title>
<path fill="none" stroke="black" d="M1436.35,-188.234C1454.91,-182.407 1476.95,-175.488 1497.47,-169.045"/>
<polygon fill="black" stroke="black" points="1498.59,-172.361 1507.08,-166.026 1496.5,-165.682 1498.59,-172.361"/>
</g>
<!-- start&#45;data&#45;sent&#45;&gt;start&#45;data&#45;sent&#45;err -->
<g id="edge22" class="edge"><title>start&#45;data&#45;sent&#45;&gt;start&#45;data&#45;sent&#45;err</title>
<path fill="none" stroke="black" d="M861.258,-108.625C904.793,-107.344 970.17,-105.421 1019.29,-103.977"/>
<polygon fill="black" stroke="black" points="1019.62,-107.469 1029.51,-103.676 1019.42,-100.472 1019.62,-107.469"/>
</g>
<!-- start&#45;data&#45;sent&#45;&gt;start&#45;data&#45;sent&#45;ok -->
<g id="edge21" class="edge"><title>start&#45;data&#45;sent&#45;&gt;start&#45;data&#45;sent&#45;ok</title>
<path fill="none" stroke="black" d="M861.34,-122.759C869.942,-125.103 879.068,-127.589 888.108,-130.051"/>
<polygon fill="black" stroke="black" points="887.285,-133.454 897.854,-132.706 889.125,-126.7 887.285,-133.454"/>
</g>
<!-- start&#45;tk&#45;sent&#45;ok -->
<g id="node22" class="node"><title>start&#45;tk&#45;sent&#45;ok</title>
<polygon fill="green" stroke="black" points="101,-174 0,-174 0,-138 101,-138 101,-174"/>
<text text-anchor="middle" x="50.5" y="-152.3" font-family="Times New Roman,serif" font-size="14.00" fill="white">start&#45;tk&#45;sent&#45;ok</text>
</g>
</g>
</svg>
