<?xml version="1.0" encoding="UTF-8" standalone="no"?><svg xmlns="http://www.w3.org/2000/svg" xmlns:xlink="http://www.w3.org/1999/xlink" contentScriptType="application/ecmascript" contentStyleType="text/css" height="326px" preserveAspectRatio="none" style="width:194px;height:326px;" version="1.1" viewBox="0 0 194 326" width="194px" zoomAndPan="magnify"><defs><filter height="300%" id="f1qqhqrbd9ckdv" width="300%" x="-1" y="-1"><feGaussianBlur result="blurOut" stdDeviation="2.0"/><feColorMatrix in="blurOut" result="blurOut2" type="matrix" values="0 0 0 0 0 0 0 0 0 0 0 0 0 0 0 0 0 0 .4 0"/><feOffset dx="4.0" dy="4.0" in="blurOut2" result="blurOut3"/><feBlend in="SourceGraphic" in2="blurOut3" mode="normal"/></filter></defs><g><line style="stroke: #A80036; stroke-width: 1.0; stroke-dasharray: 5.0,5.0;" x1="37" x2="37" y1="39.6094" y2="285.0703"/><line style="stroke: #A80036; stroke-width: 1.0; stroke-dasharray: 5.0,5.0;" x1="161.5" x2="161.5" y1="39.6094" y2="285.0703"/><rect fill="#FEFECE" filter="url(#f1qqhqrbd9ckdv)" height="31.6094" style="stroke: #A80036; stroke-width: 1.5;" width="54" x="8" y="3"/><text fill="#000000" font-family="sans-serif" font-size="14" lengthAdjust="spacingAndGlyphs" textLength="40" x="15" y="24.5332">server</text><rect fill="#FEFECE" filter="url(#f1qqhqrbd9ckdv)" height="31.6094" style="stroke: #A80036; stroke-width: 1.5;" width="54" x="8" y="284.0703"/><text fill="#000000" font-family="sans-serif" font-size="14" lengthAdjust="spacingAndGlyphs" textLength="40" x="15" y="305.6035">server</text><rect fill="#FEFECE" filter="url(#f1qqhqrbd9ckdv)" height="31.6094" style="stroke: #A80036; stroke-width: 1.5;" width="47" x="136.5" y="3"/><text fill="#000000" font-family="sans-serif" font-size="14" lengthAdjust="spacingAndGlyphs" textLength="33" x="143.5" y="24.5332">client</text><rect fill="#FEFECE" filter="url(#f1qqhqrbd9ckdv)" height="31.6094" style="stroke: #A80036; stroke-width: 1.5;" width="47" x="136.5" y="284.0703"/><text fill="#000000" font-family="sans-serif" font-size="14" lengthAdjust="spacingAndGlyphs" textLength="33" x="143.5" y="305.6035">client</text><line style="stroke: #A80036; stroke-width: 1.0;" x1="37" x2="79" y1="71.9609" y2="71.9609"/><line style="stroke: #A80036; stroke-width: 1.0;" x1="79" x2="79" y1="71.9609" y2="84.9609"/><line style="stroke: #A80036; stroke-width: 1.0;" x1="38" x2="79" y1="84.9609" y2="84.9609"/><polygon fill="#A80036" points="48,80.9609,38,84.9609,48,88.9609,44,84.9609" style="stroke: #A80036; stroke-width: 1.0;"/><text fill="#000000" font-family="sans-serif" font-size="13" lengthAdjust="spacingAndGlyphs" textLength="40" x="44" y="67.1045">started</text><polygon fill="#A80036" points="150,111.3125,160,115.3125,150,119.3125,154,115.3125" style="stroke: #A80036; stroke-width: 1.0;"/><line style="stroke: #A80036; stroke-width: 1.0; stroke-dasharray: 2.0,2.0;" x1="37" x2="156" y1="115.3125" y2="115.3125"/><text fill="#000000" font-family="sans-serif" font-size="13" lengthAdjust="spacingAndGlyphs" textLength="70" x="44" y="110.4561">start-tk-sent</text><polygon fill="#A80036" points="48,141.6641,38,145.6641,48,149.6641,44,145.6641" style="stroke: #A80036; stroke-width: 1.0;"/><line style="stroke: #A80036; stroke-width: 1.0; stroke-dasharray: 2.0,2.0;" x1="42" x2="161" y1="145.6641" y2="145.6641"/><text fill="#000000" font-family="sans-serif" font-size="13" lengthAdjust="spacingAndGlyphs" textLength="92" x="54" y="140.8076">start-tk-received</text><polygon fill="#A80036" points="150,172.0156,160,176.0156,150,180.0156,154,176.0156" style="stroke: #A80036; stroke-width: 1.0;"/><line style="stroke: #A80036; stroke-width: 1.0;" x1="37" x2="156" y1="176.0156" y2="176.0156"/><text fill="#000000" font-family="sans-serif" font-size="13" lengthAdjust="spacingAndGlyphs" textLength="84" x="44" y="171.1592">start-data-sent</text><polygon fill="#A80036" points="48,202.3672,38,206.3672,48,210.3672,44,206.3672" style="stroke: #A80036; stroke-width: 1.0;"/><line style="stroke: #A80036; stroke-width: 1.0; stroke-dasharray: 2.0,2.0;" x1="42" x2="161" y1="206.3672" y2="206.3672"/><text fill="#000000" font-family="sans-serif" font-size="13" lengthAdjust="spacingAndGlyphs" textLength="98" x="54" y="201.5107">result-tk-received</text><polygon fill="#A80036" points="150,232.7188,160,236.7188,150,240.7188,154,236.7188" style="stroke: #A80036; stroke-width: 1.0;"/><line style="stroke: #A80036; stroke-width: 1.0; stroke-dasharray: 2.0,2.0;" x1="37" x2="156" y1="236.7188" y2="236.7188"/><text fill="#000000" font-family="sans-serif" font-size="13" lengthAdjust="spacingAndGlyphs" textLength="76" x="44" y="231.8623">result-tk-sent</text><polygon fill="#A80036" points="48,263.0703,38,267.0703,48,271.0703,44,267.0703" style="stroke: #A80036; stroke-width: 1.0;"/><line style="stroke: #A80036; stroke-width: 1.0;" x1="42" x2="161" y1="267.0703" y2="267.0703"/><text fill="#000000" font-family="sans-serif" font-size="13" lengthAdjust="spacingAndGlyphs" textLength="101" x="54" y="262.2139">result-received-ok</text><!--
@startuml
server -> server : started
server - -> client : start-tk-sent
client - -> server : start-tk-received
server -> client : start-data-sent
client - -> server : result-tk-received
server - -> client : result-tk-sent
client -> server : result-received-ok
@enduml

PlantUML version 1.2018.10(Sat Aug 25 19:02:59 CEST 2018)
(GPL source distribution)
Java Runtime: Java(TM) SE Runtime Environment
JVM: Java HotSpot(TM) Client VM
Java Version: 1.8.0_181-b13
Operating System: Windows 10
OS Version: 10.0
Default Encoding: Cp1252
Language: en
Country: US
--></g></svg>