<?xml version="1.0" encoding="UTF-8" standalone="no"?>
<!DOCTYPE svg PUBLIC "-//W3C//DTD SVG 1.1//EN"
 "http://www.w3.org/Graphics/SVG/1.1/DTD/svg11.dtd">
<!-- Generated by graphviz version 2.38.0 (20140413.2041)
 -->
<!-- Title: G Pages: 1 -->
<svg width="2169pt" height="287pt"
 viewBox="0.00 0.00 2169.29 287.35" xmlns="http://www.w3.org/2000/svg" xmlns:xlink="http://www.w3.org/1999/xlink">
<g id="graph0" class="graph" transform="scale(1 1) rotate(0) translate(4 283.345)">
<title>G</title>
<polygon fill="white" stroke="none" points="-4,4 -4,-283.345 2165.29,-283.345 2165.29,4 -4,4"/>
<!-- start&#45;tk&#45;sent&#45;ok -->
<g id="node1" class="node"><title>start&#45;tk&#45;sent&#45;ok</title>
<polygon fill="green" stroke="black" points="753.1,-147 652.1,-147 652.1,-111 753.1,-111 753.1,-147"/>
<text text-anchor="middle" x="702.6" y="-125.3" font-family="Times New Roman,serif" font-size="14.00" fill="white">start&#45;tk&#45;sent&#45;ok</text>
</g>
<!-- start&#45;tk&#45;received -->
<g id="node2" class="node"><title>start&#45;tk&#45;received</title>
<polygon fill="blue" stroke="black" points="931.6,-147 824.6,-147 824.6,-111 931.6,-111 931.6,-147"/>
<text text-anchor="middle" x="878.1" y="-125.3" font-family="Times New Roman,serif" font-size="14.00" fill="white">start&#45;tk&#45;received</text>
</g>
<!-- start&#45;tk&#45;sent&#45;ok&#45;&gt;start&#45;tk&#45;received -->
<g id="edge1" class="edge"><title>start&#45;tk&#45;sent&#45;ok&#45;&gt;start&#45;tk&#45;received</title>
<path fill="none" stroke="black" d="M753.318,-129C772.248,-129 794.075,-129 814.078,-129"/>
<polygon fill="black" stroke="black" points="814.347,-132.5 824.347,-129 814.347,-125.5 814.347,-132.5"/>
<text text-anchor="middle" x="789.1" y="-132.8" font-family="Times New Roman,serif" font-size="14.00">step&#45;2</text>
</g>
<!-- start&#45;tk&#45;ok -->
<g id="node17" class="node"><title>start&#45;tk&#45;ok</title>
<polygon fill="green" stroke="black" points="1043.1,-189 969.1,-189 969.1,-153 1043.1,-153 1043.1,-189"/>
<text text-anchor="middle" x="1006.1" y="-167.3" font-family="Times New Roman,serif" font-size="14.00" fill="white">start&#45;tk&#45;ok</text>
</g>
<!-- start&#45;tk&#45;received&#45;&gt;start&#45;tk&#45;ok -->
<g id="edge16" class="edge"><title>start&#45;tk&#45;received&#45;&gt;start&#45;tk&#45;ok</title>
<path fill="none" stroke="black" d="M931.805,-146.568C941.017,-149.639 950.53,-152.81 959.528,-155.809"/>
<polygon fill="black" stroke="black" points="958.458,-159.142 969.051,-158.984 960.671,-152.501 958.458,-159.142"/>
</g>
<!-- start&#45;tk&#45;err -->
<g id="node18" class="node"><title>start&#45;tk&#45;err</title>
<polygon fill="red" stroke="black" points="1043.6,-135 968.6,-135 968.6,-99 1043.6,-99 1043.6,-135"/>
<text text-anchor="middle" x="1006.1" y="-113.3" font-family="Times New Roman,serif" font-size="14.00" fill="white">start&#45;tk&#45;err</text>
</g>
<!-- start&#45;tk&#45;received&#45;&gt;start&#45;tk&#45;err -->
<g id="edge17" class="edge"><title>start&#45;tk&#45;received&#45;&gt;start&#45;tk&#45;err</title>
<path fill="none" stroke="black" d="M931.805,-123.98C940.531,-123.149 949.527,-122.293 958.1,-121.476"/>
<polygon fill="black" stroke="black" points="958.678,-124.937 968.301,-120.505 958.014,-117.969 958.678,-124.937"/>
</g>
<!-- result&#45;received&#45;ok -->
<g id="node3" class="node"><title>result&#45;received&#45;ok</title>
<polygon fill="blue" stroke="black" points="1893.1,-242 1777.1,-242 1777.1,-206 1893.1,-206 1893.1,-242"/>
<text text-anchor="middle" x="1835.1" y="-220.3" font-family="Times New Roman,serif" font-size="14.00" fill="white">result&#45;received&#45;ok</text>
</g>
<!-- result&#45;saved -->
<g id="node4" class="node"><title>result&#45;saved</title>
<polygon fill="none" stroke="black" points="2013.6,-242 1930.6,-242 1930.6,-206 2013.6,-206 2013.6,-242"/>
<text text-anchor="middle" x="1972.1" y="-220.3" font-family="Times New Roman,serif" font-size="14.00">result&#45;saved</text>
</g>
<!-- result&#45;received&#45;ok&#45;&gt;result&#45;saved -->
<g id="edge2" class="edge"><title>result&#45;received&#45;ok&#45;&gt;result&#45;saved</title>
<path fill="none" stroke="black" d="M1893.35,-224C1902.34,-224 1911.58,-224 1920.4,-224"/>
<polygon fill="black" stroke="black" points="1920.54,-227.5 1930.54,-224 1920.54,-220.5 1920.54,-227.5"/>
</g>
<!-- finished&#45;ok -->
<g id="node16" class="node"><title>finished&#45;ok</title>
<ellipse fill="green" stroke="black" cx="2105.95" cy="-224" rx="51.2025" ry="51.2025"/>
<ellipse fill="none" stroke="black" cx="2105.95" cy="-224" rx="55.1913" ry="55.1913"/>
<text text-anchor="middle" x="2105.95" y="-220.3" font-family="Times New Roman,serif" font-size="14.00" fill="white">finished&#45;ok</text>
</g>
<!-- result&#45;saved&#45;&gt;finished&#45;ok -->
<g id="edge13" class="edge"><title>result&#45;saved&#45;&gt;finished&#45;ok</title>
<path fill="none" stroke="black" d="M2013.73,-224C2022.09,-224 2031.08,-224 2040.05,-224"/>
<polygon fill="black" stroke="black" points="2040.13,-227.5 2050.13,-224 2040.13,-220.5 2040.13,-227.5"/>
</g>
<!-- start&#45;tk&#45;sent -->
<g id="node5" class="node"><title>start&#45;tk&#45;sent</title>
<polygon fill="blue" stroke="black" points="614.6,-120 531.6,-120 531.6,-84 614.6,-84 614.6,-120"/>
<text text-anchor="middle" x="573.1" y="-98.3" font-family="Times New Roman,serif" font-size="14.00" fill="white">start&#45;tk&#45;sent</text>
</g>
<!-- start&#45;tk&#45;sent&#45;&gt;start&#45;tk&#45;sent&#45;ok -->
<g id="edge3" class="edge"><title>start&#45;tk&#45;sent&#45;&gt;start&#45;tk&#45;sent&#45;ok</title>
<path fill="none" stroke="black" d="M614.792,-110.617C623.463,-112.453 632.79,-114.429 642.002,-116.379"/>
<polygon fill="black" stroke="black" points="641.408,-119.831 651.916,-118.479 642.858,-112.983 641.408,-119.831"/>
</g>
<!-- start&#45;tk&#45;sent&#45;err -->
<g id="node6" class="node"><title>start&#45;tk&#45;sent&#45;err</title>
<polygon fill="red" stroke="black" points="753.6,-93 651.6,-93 651.6,-57 753.6,-57 753.6,-93"/>
<text text-anchor="middle" x="702.6" y="-71.3" font-family="Times New Roman,serif" font-size="14.00" fill="white">start&#45;tk&#45;sent&#45;err</text>
</g>
<!-- start&#45;tk&#45;sent&#45;&gt;start&#45;tk&#45;sent&#45;err -->
<g id="edge4" class="edge"><title>start&#45;tk&#45;sent&#45;&gt;start&#45;tk&#45;sent&#45;err</title>
<path fill="none" stroke="black" d="M614.792,-93.3828C623.356,-91.5694 632.56,-89.6202 641.661,-87.693"/>
<polygon fill="black" stroke="black" points="642.402,-91.1137 651.46,-85.6178 640.952,-84.2655 642.402,-91.1137"/>
</g>
<!-- authenticated -->
<g id="node7" class="node"><title>authenticated</title>
<polygon fill="none" stroke="black" points="349.6,-70 260.6,-70 260.6,-34 349.6,-34 349.6,-70"/>
<text text-anchor="middle" x="305.1" y="-48.3" font-family="Times New Roman,serif" font-size="14.00">authenticated</text>
</g>
<!-- authorized -->
<g id="node8" class="node"><title>authorized</title>
<polygon fill="none" stroke="black" points="460.6,-108 386.6,-108 386.6,-72 460.6,-72 460.6,-108"/>
<text text-anchor="middle" x="423.6" y="-86.3" font-family="Times New Roman,serif" font-size="14.00">authorized</text>
</g>
<!-- authenticated&#45;&gt;authorized -->
<g id="edge5" class="edge"><title>authenticated&#45;&gt;authorized</title>
<path fill="none" stroke="black" d="M349.812,-66.2579C358.537,-69.104 367.727,-72.1017 376.529,-74.9727"/>
<polygon fill="black" stroke="black" points="375.664,-78.3719 386.257,-78.1455 377.835,-71.7169 375.664,-78.3719"/>
</g>
<!-- err -->
<g id="node9" class="node"><title>err</title>
<polygon fill="red" stroke="black" points="600.1,-62 546.1,-62 546.1,-26 600.1,-26 600.1,-62"/>
<text text-anchor="middle" x="573.1" y="-40.3" font-family="Times New Roman,serif" font-size="14.00" fill="white">err</text>
</g>
<!-- authenticated&#45;&gt;err -->
<g id="edge6" class="edge"><title>authenticated&#45;&gt;err</title>
<path fill="none" stroke="black" d="M349.727,-50.6879C401.631,-49.1269 487.336,-46.5493 535.79,-45.092"/>
<polygon fill="black" stroke="black" points="535.936,-48.5893 545.826,-44.7902 535.725,-41.5925 535.936,-48.5893"/>
</g>
<!-- authorized&#45;&gt;start&#45;tk&#45;sent -->
<g id="edge14" class="edge"><title>authorized&#45;&gt;start&#45;tk&#45;sent</title>
<path fill="none" stroke="black" d="M460.683,-92.9355C478.912,-94.4186 501.339,-96.2432 521.281,-97.8656"/>
<polygon fill="black" stroke="black" points="521.197,-101.37 531.448,-98.6927 521.765,-94.3933 521.197,-101.37"/>
<text text-anchor="middle" x="496.1" y="-101.8" font-family="Times New Roman,serif" font-size="14.00">step&#45;1</text>
</g>
<!-- authorized&#45;&gt;err -->
<g id="edge15" class="edge"><title>authorized&#45;&gt;err</title>
<path fill="none" stroke="black" d="M460.683,-78.7471C483.565,-71.6109 513.06,-62.4124 535.955,-55.2724"/>
<polygon fill="black" stroke="black" points="537.138,-58.5698 545.642,-52.2513 535.054,-51.8873 537.138,-58.5698"/>
</g>
<!-- start&#45;data&#45;sent&#45;ok -->
<g id="node10" class="node"><title>start&#45;data&#45;sent&#45;ok</title>
<polygon fill="green" stroke="black" points="1361.1,-231 1247.1,-231 1247.1,-195 1361.1,-195 1361.1,-231"/>
<text text-anchor="middle" x="1304.1" y="-209.3" font-family="Times New Roman,serif" font-size="14.00" fill="white">start&#45;data&#45;sent&#45;ok</text>
</g>
<!-- tool&#45;timeout&#45;err -->
<g id="node11" class="node"><title>tool&#45;timeout&#45;err</title>
<polygon fill="red" stroke="black" points="1541.1,-258 1437.1,-258 1437.1,-222 1541.1,-222 1541.1,-258"/>
<text text-anchor="middle" x="1489.1" y="-236.3" font-family="Times New Roman,serif" font-size="14.00" fill="white">tool&#45;timeout&#45;err</text>
</g>
<!-- start&#45;data&#45;sent&#45;ok&#45;&gt;tool&#45;timeout&#45;err -->
<g id="edge7" class="edge"><title>start&#45;data&#45;sent&#45;ok&#45;&gt;tool&#45;timeout&#45;err</title>
<path fill="none" stroke="black" d="M1361.5,-221.321C1382.17,-224.37 1405.65,-227.835 1426.73,-230.946"/>
<polygon fill="black" stroke="black" points="1426.46,-234.444 1436.86,-232.441 1427.48,-227.518 1426.46,-234.444"/>
</g>
<!-- result&#45;tk&#45;received -->
<g id="node12" class="node"><title>result&#45;tk&#45;received</title>
<polygon fill="blue" stroke="black" points="1545.6,-204 1432.6,-204 1432.6,-168 1545.6,-168 1545.6,-204"/>
<text text-anchor="middle" x="1489.1" y="-182.3" font-family="Times New Roman,serif" font-size="14.00" fill="white">result&#45;tk&#45;received</text>
</g>
<!-- start&#45;data&#45;sent&#45;ok&#45;&gt;result&#45;tk&#45;received -->
<g id="edge8" class="edge"><title>start&#45;data&#45;sent&#45;ok&#45;&gt;result&#45;tk&#45;received</title>
<path fill="none" stroke="black" d="M1361.5,-204.679C1380.81,-201.829 1402.59,-198.616 1422.57,-195.669"/>
<polygon fill="black" stroke="black" points="1423.13,-199.123 1432.52,-194.201 1422.11,-192.198 1423.13,-199.123"/>
<text text-anchor="middle" x="1397.1" y="-205.8" font-family="Times New Roman,serif" font-size="14.00">step&#45;4</text>
</g>
<!-- result&#45;tk&#45;sent -->
<g id="node19" class="node"><title>result&#45;tk&#45;sent</title>
<polygon fill="blue" stroke="black" points="1705.6,-204 1616.6,-204 1616.6,-168 1705.6,-168 1705.6,-204"/>
<text text-anchor="middle" x="1661.1" y="-182.3" font-family="Times New Roman,serif" font-size="14.00" fill="white">result&#45;tk&#45;sent</text>
</g>
<!-- result&#45;tk&#45;received&#45;&gt;result&#45;tk&#45;sent -->
<g id="edge20" class="edge"><title>result&#45;tk&#45;received&#45;&gt;result&#45;tk&#45;sent</title>
<path fill="none" stroke="black" d="M1545.76,-186C1565.22,-186 1587.01,-186 1606.31,-186"/>
<polygon fill="black" stroke="black" points="1606.44,-189.5 1616.44,-186 1606.44,-182.5 1606.44,-189.5"/>
<text text-anchor="middle" x="1581.1" y="-189.8" font-family="Times New Roman,serif" font-size="14.00">step&#45;5</text>
</g>
<!-- started -->
<g id="node13" class="node"><title>started</title>
<polygon fill="none" stroke="black" points="94.6,-36 40.6,-36 40.6,-0 94.6,-0 94.6,-36"/>
<text text-anchor="middle" x="67.6" y="-14.3" font-family="Times New Roman,serif" font-size="14.00">started</text>
</g>
<!-- tool&#45;validated -->
<g id="node14" class="node"><title>tool&#45;validated</title>
<polygon fill="none" stroke="black" points="223.6,-36 131.6,-36 131.6,-0 223.6,-0 223.6,-36"/>
<text text-anchor="middle" x="177.6" y="-14.3" font-family="Times New Roman,serif" font-size="14.00">tool&#45;validated</text>
</g>
<!-- started&#45;&gt;tool&#45;validated -->
<g id="edge9" class="edge"><title>started&#45;&gt;tool&#45;validated</title>
<path fill="none" stroke="black" d="M94.7438,-18C102.813,-18 112.024,-18 121.287,-18"/>
<polygon fill="black" stroke="black" points="121.307,-21.5001 131.307,-18 121.307,-14.5001 121.307,-21.5001"/>
</g>
<!-- tool&#45;validated&#45;&gt;authenticated -->
<g id="edge11" class="edge"><title>tool&#45;validated&#45;&gt;authenticated</title>
<path fill="none" stroke="black" d="M223.908,-30.2748C232.581,-32.6242 241.735,-35.1044 250.636,-37.5156"/>
<polygon fill="black" stroke="black" points="249.969,-40.9612 260.536,-40.1979 251.8,-34.2047 249.969,-40.9612"/>
</g>
<!-- tool&#45;validated&#45;&gt;err -->
<g id="edge12" class="edge"><title>tool&#45;validated&#45;&gt;err</title>
<path fill="none" stroke="black" d="M223.633,-19.2992C258.131,-20.4263 306.899,-22.3042 349.6,-25 415.37,-29.1523 491.897,-36.1674 535.898,-40.4127"/>
<polygon fill="black" stroke="black" points="535.803,-43.9199 546.094,-41.4032 536.48,-36.9527 535.803,-43.9199"/>
</g>
<!-- initial -->
<g id="node15" class="node"><title>initial</title>
<ellipse fill="black" stroke="black" cx="1.8" cy="-18" rx="1.8" ry="1.8"/>
</g>
<!-- initial&#45;&gt;started -->
<g id="edge10" class="edge"><title>initial&#45;&gt;started</title>
<path fill="none" stroke="black" d="M3.90737,-18C7.37186,-18 18.4868,-18 30.4158,-18"/>
<polygon fill="black" stroke="black" points="30.4776,-21.5001 40.4775,-18 30.4775,-14.5001 30.4776,-21.5001"/>
</g>
<!-- start&#45;data&#45;sent -->
<g id="node21" class="node"><title>start&#45;data&#45;sent</title>
<polygon fill="blue" stroke="black" points="1209.6,-189 1114.6,-189 1114.6,-153 1209.6,-153 1209.6,-189"/>
<text text-anchor="middle" x="1162.1" y="-167.3" font-family="Times New Roman,serif" font-size="14.00" fill="white">start&#45;data&#45;sent</text>
</g>
<!-- start&#45;tk&#45;ok&#45;&gt;start&#45;data&#45;sent -->
<g id="edge21" class="edge"><title>start&#45;tk&#45;ok&#45;&gt;start&#45;data&#45;sent</title>
<path fill="none" stroke="black" d="M1043.21,-171C1061.38,-171 1083.84,-171 1104.27,-171"/>
<polygon fill="black" stroke="black" points="1104.41,-174.5 1114.41,-171 1104.41,-167.5 1104.41,-174.5"/>
<text text-anchor="middle" x="1079.1" y="-174.8" font-family="Times New Roman,serif" font-size="14.00">step&#45;3</text>
</g>
<!-- result&#45;tk&#45;sent&#45;&gt;result&#45;received&#45;ok -->
<g id="edge18" class="edge"><title>result&#45;tk&#45;sent&#45;&gt;result&#45;received&#45;ok</title>
<path fill="none" stroke="black" d="M1705.95,-195.687C1724.51,-199.788 1746.55,-204.657 1767.07,-209.192"/>
<polygon fill="black" stroke="black" points="1766.49,-212.646 1777,-211.386 1768,-205.811 1766.49,-212.646"/>
<text text-anchor="middle" x="1741.1" y="-211.8" font-family="Times New Roman,serif" font-size="14.00">step&#45;6</text>
</g>
<!-- result&#45;received&#45;err -->
<g id="node20" class="node"><title>result&#45;received&#45;err</title>
<polygon fill="red" stroke="black" points="1893.6,-188 1776.6,-188 1776.6,-152 1893.6,-152 1893.6,-188"/>
<text text-anchor="middle" x="1835.1" y="-166.3" font-family="Times New Roman,serif" font-size="14.00" fill="white">result&#45;received&#45;err</text>
</g>
<!-- result&#45;tk&#45;sent&#45;&gt;result&#45;received&#45;err -->
<g id="edge19" class="edge"><title>result&#45;tk&#45;sent&#45;&gt;result&#45;received&#45;err</title>
<path fill="none" stroke="black" d="M1705.95,-181.921C1724.25,-180.218 1745.95,-178.2 1766.23,-176.314"/>
<polygon fill="black" stroke="black" points="1766.73,-179.782 1776.36,-175.371 1766.08,-172.812 1766.73,-179.782"/>
</g>
<!-- start&#45;data&#45;sent&#45;&gt;start&#45;data&#45;sent&#45;ok -->
<g id="edge22" class="edge"><title>start&#45;data&#45;sent&#45;&gt;start&#45;data&#45;sent&#45;ok</title>
<path fill="none" stroke="black" d="M1209.72,-184.985C1218.57,-187.642 1227.99,-190.468 1237.31,-193.264"/>
<polygon fill="black" stroke="black" points="1236.38,-196.637 1246.96,-196.158 1238.39,-189.932 1236.38,-196.637"/>
</g>
<!-- start&#45;data&#45;sent&#45;err -->
<g id="node22" class="node"><title>start&#45;data&#45;sent&#45;err</title>
<polygon fill="red" stroke="black" points="1361.6,-177 1246.6,-177 1246.6,-141 1361.6,-141 1361.6,-177"/>
<text text-anchor="middle" x="1304.1" y="-155.3" font-family="Times New Roman,serif" font-size="14.00" fill="white">start&#45;data&#45;sent&#45;err</text>
</g>
<!-- start&#45;data&#45;sent&#45;&gt;start&#45;data&#45;sent&#45;err -->
<g id="edge23" class="edge"><title>start&#45;data&#45;sent&#45;&gt;start&#45;data&#45;sent&#45;err</title>
<path fill="none" stroke="black" d="M1209.72,-167.004C1218.27,-166.271 1227.35,-165.493 1236.36,-164.721"/>
<polygon fill="black" stroke="black" points="1236.8,-168.196 1246.47,-163.854 1236.2,-161.221 1236.8,-168.196"/>
</g>
</g>
</svg>
